# xmcd CD database file
#
# Track frame offsets:
#	150
#	14904
#	28540
#	44534
#	57751
#	74277
#	86674
#	105257
#	119296
#	136515
#	148262
#	162491
#	182517
#	197362
#
# Disc length: 3072 seconds
#
# Revision: 5
# Processed by: cddbd v1.5.2PL0 Copyright (c) Steve Scherf et al.
# Submitted via: CDex 1.51
#
DISCID=bc0bfe0e
DTITLE=Zebrahead - Broadcast to the World
DYEAR=2006
DGENRE=Punk Rock
TTITLE0=Broadcast to the World
TTITLE1=Rated "U" for Ugly
TTITLE2=Anthem
TTITLE3=Enemy
TTITLE4=Back to Normal
TTITLE5=Postcards from Hell
TTITLE6=Karma Flavored Whisky
TTITLE7=Here's to You
TTITLE8=Wake me Up
TTITLE9=Lobotomy for Dummies
TTITLE10=The Walking Dead
TTITLE11=Your New Boyfriends Wears Girl Pants
TTITLE12=Riot Girl
TTITLE13=Down in Flames
EXTD=YEAR: 2006
EXTT0=
EXTT1=
EXTT2=
EXTT3=
EXTT4=
EXTT5=
EXTT6=
EXTT7=
EXTT8=
EXTT9=
EXTT10=
EXTT11=
EXTT12=
EXTT13=
PLAYORDER=
